<svg width="267" height="267" viewBox="0 0 267 267" fill="none" xmlns="http://www.w3.org/2000/svg">
<path d="M118.994 5.85785C126.805 -1.95264 139.469 -1.95264 147.28 5.85785L177.137 35.7153H132.216C128.016 35.7153 124.415 37.2153 121.415 40.2153C118.615 43.0152 117.216 46.5155 117.216 50.7153V223.816C117.216 228.016 118.615 231.616 121.415 234.616C124.415 237.416 128.016 238.816 132.216 238.816C136.416 238.816 139.916 237.416 142.716 234.616C145.716 231.616 147.216 228.016 147.216 223.816V147.316H227.016C231.216 147.316 234.716 145.916 237.516 143.116C240.316 140.116 241.716 136.616 241.716 132.616C241.716 128.416 240.316 124.816 237.516 121.816C234.716 118.816 231.216 117.316 227.016 117.316H147.216V65.7153H207.137L260.416 118.995C268.227 126.805 268.226 139.468 260.416 147.279L147.28 260.416C139.469 268.227 126.805 268.227 118.994 260.416L5.85767 147.279C-1.95256 139.468 -1.95273 126.805 5.85767 118.995L118.994 5.85785Z" fill="#F05033"/>
</svg>
